<?xml version="1.0" encoding="UTF-8" standalone="no"?>
<svg
   version="1.1"
   width="994.07721"
   height="225.69864"
   id="svg2818"
   sodipodi:docname="ChatGPT Image Nov 9, 2025, 04_44_33 AM.svg"
   inkscape:version="1.2.2 (b0a8486541, 2022-12-01)"
   xmlns:inkscape="http://www.inkscape.org/namespaces/inkscape"
   xmlns:sodipodi="http://sodipodi.sourceforge.net/DTD/sodipodi-0.dtd"
   xmlns="http://www.w3.org/2000/svg"
   xmlns:svg="http://www.w3.org/2000/svg">
  <defs
     id="defs2822" />
  <sodipodi:namedview
     id="namedview2820"
     pagecolor="#505050"
     bordercolor="#eeeeee"
     borderopacity="1"
     inkscape:showpageshadow="0"
     inkscape:pageopacity="0"
     inkscape:pagecheckerboard="0"
     inkscape:deskcolor="#505050"
     showgrid="false"
     inkscape:zoom="0.54414077"
     inkscape:cx="819.64084"
     inkscape:cy="290.36604"
     inkscape:window-width="1920"
     inkscape:window-height="1011"
     inkscape:window-x="0"
     inkscape:window-y="0"
     inkscape:window-maximized="1"
     inkscape:current-layer="svg2818" />
  <g
     id="g5253"
     transform="matrix(0.27375865,0,0,0.27375865,490.05901,-144.21564)"
     inkscape:export-filename="primetech logo only.svg"
     inkscape:export-xdpi="96"
     inkscape:export-ydpi="96">
    <g
       id="g4839">
      <g
         id="g4857"
         transform="translate(-1819.6326,489.97481)">
        <g
           id="g3761"
           style="fill:#3b59cb;fill-opacity:1">
          <path
             id="path2"
             style="fill:#3b59cb;fill-opacity:1"
             d="m 521.09594,38.871244 c -5.09969,-0.0285 -10.26865,0.04257 -15.27492,0.0214 l -97.82083,0.107017 0.12129,409.890019 c 0.5491,2.15454 -0.15669,2.18073 1.99765,2.99648 l 23.45817,-0.007 c 3.2274,0.12629 5.6435,0.5707 8.53997,-0.87754 l 0.88467,-149.00357 c 14.33272,0.35832 28.6623,0.99883 42.9995,0.99883 40.26678,-0.89848 105.23153,-11.75524 133.99976,-53.99373 24.81546,-31.61267 30.40589,-66.38607 23.53664,-109.47143 -6.65692,-25.85033 -12.49969,-45.237399 -35.97203,-66.593218 -16.52542,-13.446056 -44.47558,-30.297504 -71.62303,-33.47497 -4.71449,-0.433073 -9.74716,-0.563663 -14.84684,-0.592162 z m -79.09282,30.1289 c 24.72431,-0.0046 55.45927,-0.04067 82.84555,0.585027 14.17576,0.402311 30.9115,5.82372 45.15411,13.412818 18.49805,10.810116 31.5607,29.077881 39.24676,48.749891 8.8441,24.12315 8.87035,53.17233 -1.49824,76.81692 -32.66057,67.68028 -89.7919,58.44349 -165.74818,61.43499 z m 404.03974,15.267782 c -2.50551,-0.114079 -5.09545,0.121743 -7.79085,0.856138 -4.79659,3.997147 -4.79666,4.001556 -10.31645,17.258306 -25.73944,62.86786 -51.15582,119.69211 -76.19623,185.55349 -0.95999,5.72036 -0.38739,11.10099 5.46501,14.32603 l 104.96244,42.61424 c 5.72329,2.61638 10.52294,3.9541 16.83023,3.1249 4.8046,-2.40231 7.48513,-6.36471 9.52453,-11.2154 26.04694,-62.47516 48.78328,-116.77987 74.36266,-177.13481 3.333,-7.70715 6.41349,-15.45484 4.30209,-23.9005 -4.85619,-6.10499 -4.85244,-6.10443 -27.54622,-15.18217 -24.19752,-9.72141 -47.27431,-19.57382 -72.78594,-29.879194 -6.54549,-2.590054 -13.29475,-6.078792 -20.81127,-6.42103 z m 41.50839,28.423764 c 0.55688,0.006 1.24282,0.14994 2.08327,0.47087 7.22458,2.12075 17.10929,6.12118 25.36307,9.83845 l 5.13682,2.53987 c 4.94242,2.72138 3.49456,8.47752 -3.84548,5.20817 l -4.58034,-1.74795 -19.12753,-7.87646 c -1.64406,-0.73751 -3.40715,-1.60621 -4.89425,-2.52561 -1.29162,-0.95113 -2.62732,-1.4551 -2.43999,-3.39601 0.11884,-1.31564 0.6338,-2.52897 2.30443,-2.51133 z m -35.64385,4.90852 c 5.63121,-0.22956 8.84077,1.06627 15.6031,4.05951 l 71.64443,31.71276 c 1.0563,2.63515 1.05857,2.63526 0.44947,5.52208 l -55.71314,133.12222 c -1.65759,3.71609 -2.97355,6.42501 -6.57085,8.60418 -3.9325,0.44547 -6.32814,-0.27262 -9.98113,-1.66233 L 794.9386,269.68587 c -3.42186,-1.42001 -6.91721,-2.44903 -8.9395,-5.68618 0.33022,-3.22019 0.99663,-5.97658 2.1118,-9.01798 18.26394,-44.21298 34.86513,-86.3012 53.28742,-127.99967 1.27497,-2.88589 2.55905,-5.76419 3.85261,-8.64698 2.63696,-0.40962 4.7794,-0.65834 6.65647,-0.73485 z M 68.741508,198.28402 c -5.290947,0.0506 -10.540334,0.87051 -15.931289,2.87519 -18.672759,8.73918 -27.787389,25.64355 -21.110919,46.08873 10.226284,18.96186 33.922478,18.15164 53.151859,8.754 19.500471,-9.94963 34.530111,-6.09834 54.964021,-0.77766 12.85083,3.36244 26.69422,7.18387 41.23014,11.89318 53.51848,18.97905 88.79934,71.87931 107.87331,147.63375 7.05953,66.07911 5.31714,125.67484 13.01328,192.38832 1.72053,18.71808 4.03817,39.39213 3.78841,58.7881 -1.16816,17.89066 -24.47993,33.90647 -36.72116,59.10201 -7.24383,19.52842 -14.81361,45.88943 -19.04905,68.09146 -6.84692,35.89136 -4.98049,60.90803 21.04671,28.58785 16.21584,-37.67712 61.65128,-111.12791 144.63727,-122.79863 76.31479,-14.33955 177.84303,-11.23587 273.36465,2.0904 44.968,6.62752 64.72527,11.83587 140.81318,26.31196 4.50087,-2.74866 6.14785,-7.18729 3.18911,-12.31411 -21.05165,-23.76954 -57.08244,-35.37335 -87.60425,-45.86756 -87.9777,-28.86577 -169.3905,-29.37015 -261.00773,-31.81977 -32.59637,0.7405 -71.57098,8.5449 -110.34897,10.50195 -7.71687,-6.58203 -9.19772,-16.88929 -10.50195,-26.45464 -3.90473,-30.92867 -7.55683,-66.20442 -10.68031,-102.20853 -0.0864,-1.071 -0.16581,-2.11393 -0.24971,-3.15344 C 347.7237,455.57653 346.52422,413.17252 323.61359,348.99986 294.86686,284.74373 255.01961,247.19052 182.00848,223.88252 156.53237,217.56566 125.84981,211.48314 98.021405,205.0261 c -4.323737,-1.08286 -11.005589,-0.74891 -13.106036,-5.02268 -5.554604,-1.05086 -10.882914,-1.77001 -16.173861,-1.7194 z m 638.257512,81.7183 c -0.35447,0.063 -27.27234,34.87268 -28.24539,40.83062 l 0.2497,131.16737 183.99818,-0.99882 c 1,-2 0.99883,-2.00051 0.99883,-30.00048 l -156.0453,-0.0642 z m 117.69035,12.12148 c 4.38159,1.15741 6.2288,2.60458 9.125,6.0001 1.72269,4.17067 1.55659,7.59532 0.18549,11.8789 -2.1908,2.68372 -2.9939,3.70934 -6.00009,4.99414 -4.8372,0.78668 -8.74303,0.52212 -12.99902,-1.99766 -2.272,-2.14581 -3.78237,-3.79666 -4.35917,-6.92757 -0.1758,-4.43674 0.32894,-7.65014 3.36034,-11.07271 3.8364,-2.21328 6.24735,-3.02571 10.68745,-2.8752 z m -442.8085,470.36899 c -18.10692,0.81269 -36.48552,9.76283 -49.69164,21.38203 -12.3456,11.75344 -22.03804,25.66058 -22.62342,43.12791 0.22388,8.96519 2.70609,15.96864 8.87529,22.53782 9.61752,8.99081 22.76957,12.00046 35.61531,11.70768 23.64789,-2.00725 42.94934,-14.65961 58.32435,-32.06235 9.68785,-11.42319 13.71215,-23.33474 12.6209,-38.18372 -1.43197,-7.94091 -5.84619,-14.83012 -12.0002,-20.00508 -9.48737,-6.55313 -20.25643,-8.99191 -31.12059,-8.50429 z m 322.82799,0.19263 c -11.45384,0.24886 -23.1087,3.772 -33.26807,9.00371 -18.34219,9.55384 -33.20905,23.69691 -41.03039,48.37889 -1.07449,9.45317 0.10419,18.93307 5.5863,26.93265 6.45959,7.25288 15.74457,11.71158 25.25605,13.43423 21.40244,2.62186 40.62495,-4.20888 57.62518,-16.93725 13.0709,-10.75575 25.06778,-25.17749 27.06107,-42.55716 0.48334,-11.20473 -2.04819,-19.09516 -9.1892,-27.6247 -9.33772,-7.85217 -20.58711,-10.87924 -32.04094,-10.63037 z m -337.6249,21.86004 c 3.91912,-0.22922 7.98589,0.1903 12.16429,1.37695 5.00404,1.95903 8.45423,5.04285 11.0299,9.80991 1.79642,5.67238 1.59317,12.65003 -0.27824,18.26426 -5.71154,10.68542 -14.27825,17.13528 -25.62705,21.09665 -9.72734,2.61197 -18.58823,2.90839 -27.62469,-1.78362 -4.29023,-3.60768 -6.11476,-7.24849 -7.74805,-12.55668 0,-7.12938 2.91648,-14.40105 7.34851,-20.00507 8.50618,-9.00891 18.97799,-15.51477 30.73533,-16.2024 z m 325.20377,0.15695 c 1.92661,0.0941 3.88222,0.33211 5.87168,0.71345 6.15316,1.95961 9.87217,4.86777 12.84206,10.58757 2.62829,7.16808 2.16022,13.16849 -0.97743,20.16203 -5.74332,10.06542 -15.78538,16.31905 -26.69721,19.64835 -8.28996,1.84364 -17.72675,2.71249 -25.20611,-2.00478 -4.53872,-3.49424 -7.13098,-7.11727 -8.11904,-12.80639 -0.31968,-7.93634 2.75461,-14.36256 7.56255,-20.50449 9.35491,-10.27161 21.23721,-16.45444 34.7235,-15.79574 z" />
        </g>
        <g
           id="g5220"
           style="fill:#e15b00;fill-opacity:1">
          <path
             id="path4"
             style="fill:#e15b00;fill-opacity:1"
             d="m 212.41707,-305.61385 c -78.14982,0.18872 -156.971389,-0.16617 -245.918311,0.29965 52.222904,62.62266 72.743302,85.81179 57.903422,174.62347 C -0.91311088,-44.397051 -86.74027,-7.8095572 -176.49758,-9.4402755 c -1.21651,4.7997352 -0.50691,11.9783234 0,18.0002874 -4.98712,0.2876897 -9.84317,0.5398118 -15.00381,1.0059613 -1.48078,4.3795358 -1.90798,12.2062708 0,16.9943258 4.83666,0.10904 9.90435,0.0704 15.00381,0 0.0225,2.705178 0.0448,6.04907 0.0571,9.124997 0.10354,16.897263 -0.29483,40.604679 -0.0571,60.878499 -4.95452,-0.0495 -9.90019,-0.125 -15.00381,0 -1.72822,3.787595 -1.99265,9.977195 -1.99765,14.996675 13.64037,0.46324 32.91976,0.9332 45.99598,2.00479 1.55607,-4.31836 2.38036,-9.64042 2.24736,-14.625684 0.0728,-25.462204 0.21933,-50.497358 -1.0345,-76.467333 l -0.2069,-2.910866 C -98.399929,20.394866 -39.464923,6.1154096 -0.12615373,-33.619021 13.331582,-47.998346 29.643218,-66.685195 38.606926,-86.635325 l 0.89181,-2.80385 c 16.598447,0.59024 34.515676,1.147619 52.003208,2.004789 4.774065,0.347469 6.465412,0.900142 9.446046,-3.445953 8.8428,-20.500631 -1.509253,6.742162 10.5519,-27.553351 -16.557408,0.0513 -33.803593,0.0694 -51.539472,0.10701 -2.928336,0.006 -4.847448,0.19464 -7.462664,-1.11297 12.471175,-52.30737 10.660682,-103.33209 -17.129881,-150.86567 l -1.869233,-3.13204 c 2.622486,-0.84244 5.144892,-1.23941 7.947808,-1.12011 l 161.239202,0.23544 c 3.09337,10e-4 5.56617,0.005 8.81108,-0.11415 0.99999,-1 1.00631,-1.00374 1.12011,-3.59578 -0.0439,-9.43154 -3.1e-4,-18.15113 -0.19977,-27.58189 z M 0.00226687,-0.00136145 C -12.673387,-0.5846089 -21.256597,0.32671071 -32.08148,7.3257472 -85.974155,28.413722 -107.96743,27.16054 -124.38735,33.009867 c -2.32485,20.337169 -11.02832,35.777306 -9.28909,57.296991 -0.0103,8.086943 0.0532,16.171132 0.17836,24.257222 23.05047,3.44693 51.025738,2.90628 77.794345,7.39846 -8.466653,13.39702 -12.090758,30.55645 -18.799349,46.6024 -10.343417,-1.14271 -10.343825,-1.14751 -31.748426,-1.14151 -15.11545,0.0222 -33.58636,-0.0242 -51.24695,1.14151 4.16115,-14.56404 14.92449,-29.54006 19.99794,-47.00193 -7.77888,-0.46212 -16.4168,-1.6464 -24.00039,0 -5.40739,13.32498 -7.48884,30.05717 -12.99901,48.00076 -7.76916,0.98289 -16.58701,2.1397 -25.01348,3.26046 -24.30645,3.20544 -56.38427,10.05234 -80.98346,14.73983 -1.21484,2.04297 -1.21963,2.03828 -2.00479,3.99531 8.20605,0.25511 16.30089,-0.0442 24.48553,-0.66351 24.94105,-1.86769 53.96283,-2.48208 80.51971,-3.3318 -1.47006,13.37451 -4.36989,27.93295 -3.00361,38.99705 2,-0.99999 2,-0.9987 2.75391,-3.09636 5.54643,-17.64609 5.54312,-17.64565 12.24276,-34.90186 24.2235,-0.44259 53.45627,5.61786 81.004862,6.00009 -6.615486,20.61091 -12.002995,47.07123 -16.002632,71.00232 h 1.997652 c 10.71417,-22.6324 21.05278,-44.01271 35.001748,-66.99988 24.00972,4.22766 50.694285,11.53397 77.002419,16.99433 -10.4060731,21.4626 -21.0636119,47.68443 -32.832867,72.07963 -1.436786,3.01937 -2.168881,4.55889 -2.168881,7.9264 19.2689695,-18.91104 34.033345,-48.75094 54.999689,-72.99997 23.726478,9.07265 73.93074,24.68874 92.74821,45.62498 0.1882,2.7622 -1.04355,6.45019 -3.7456,9.37471 -10.69224,13.4492 -24.103779,27.86012 -34.002921,40.99471 22.951071,0 22.953911,0.005 84.315261,-51.18275 35.23458,-29.95511 81.28243,-70.01933 104.89109,-118.20403 12.82281,-28.09525 21.37728,-64.416957 5.7932,-89.609037 C 270.19394,39.750466 242.68173,26.611273 217.50396,20.232017 153.48474,1.7888439 127.02481,1.996788 68.500388,0.56226229 V 36.562837 c 3.665657,0.02973 10.093432,0.500645 15.060882,0.998827 16.71825,1.444717 28.63338,1.836774 44.94008,6.000096 -4.73579,7.012881 -11.95093,13.53499 -15.00381,22.002729 12.82091,0.725732 25.47809,1.457216 38.84723,0.699179 4.82104,-1.69291 8.27835,-8.387609 11.15832,-13.698197 4.36091,-1.143294 4.35522,-1.146678 8.82535,0.292513 14.4253,4.520751 29.81163,8.963186 45.2968,14.846848 3.64634,1.371474 11.93152,10.038844 13.3058,14.133401 4.28638,20.463067 -3.40895,42.603097 -12.42826,60.721537 -20.81354,-4.83771 -41.83143,-12.02204 -63.41124,-16.66614 -18.95505,-5.22656 -43.20706,-5.14979 -64.545616,-5.02267 -15.125538,0.016 -32.369131,-0.0803 -48.721349,-0.0713 -6.634815,0.0412 -12.958017,-0.18846 -19.3273,-2.24023 -4.443314,-3.09198 -5.618272,-10.40159 -6.000096,-16.99433 L -3.5007617,99.560276 C 1.1903082,94.087361 5.1574676,89.232983 9.9834013,83.9215 17.287824,75.817334 18.91472,69.434475 18.559044,58.665449 18.064408,39.333016 18.060855,20.800719 17.503141,0.56226229 11.398987,0.36605735 6.2297972,0.20377558 0.00226687,-0.00136145 Z M -250.50352,13.561281 c -14.69657,0 -24.67111,2.031388 -40.03869,4.566066 -7.25882,1.095258 -16.90518,3.113067 -22.05267,9.62441 13.69999,-0.914799 39.12544,-3.020951 60.28634,-2.233092 l 1.80502,0.04281 c 1.125,-4.124996 1.125,-4.125199 0,-12.000191 z M -56.360107,28.72918 c 20.279532,0.712647 40.696812,0.841137 61.292298,4.216477 L 0.18062881,39.751949 -39.636892,96.899115 c -0.907839,0.599108 -1.53609,1.017972 -2.076133,1.298475 -1.206192,0.626509 -1.977052,0.588523 -4.473317,0.463741 l -73.313898,-4.137997 c 12.70473,-21.036147 26.075134,-47.374851 45.646393,-64.410065 4.670095,-1.44199 11.382726,-1.493864 17.49374,-1.384089 z m -198.416963,73.02138 c -1.72723,-0.0713 -3.46183,0.0343 -5.34372,0.23544 l -2.2545,0.26397 c -6.87339,0.79725 -31.24811,3.15253 -42.96382,9.54594 18.66332,-0.59917 45.97678,-1.227 54.83559,-0.23544 1.125,-2.25 1.13097,-2.24659 1.00597,-8.99658 -1.83297,-0.49568 -3.55229,-0.74206 -5.27952,-0.81333 z m 240.760088,25.28459 c 23.2434044,4.25733 45.668184,7.1817 71.516005,12.97048 -8.030197,12.9923 -15.976617,28.86077 -24.99921,43.55599 -23.1984704,-4.74596 -54.194392,-8.87637 -80.997726,-12.99902 l 21.852905,-39.36092 c 6.306578,-3.49424 8.36812,-4.63846 12.628026,-4.16653 z m 102.515311,20.52589 c 5.876403,-0.20894 15.418471,2.97779 22.594891,4.87285 27.17415,7.41768 56.84659,15.75745 86.40566,27.12528 -9.82281,15.91999 -24.16139,33.79364 -36.9994,51.00439 -4.21567,-1.75878 -8.31559,-3.619 -12.38545,-5.70045 C 122.47298,211.84269 88.988,199.65126 58.49785,189.56171 67.475803,176.00977 77.920139,160.85344 88.498329,147.56104 Z M -77.085765,377.49099 c -80.545325,-0.81488 -165.253535,17.42229 -235.416365,47.07329 8.79123,8.47583 33.24312,-28.40004 94.00388,1.99765 3.375,0.5 3.3751,0.5 6.0001,0 71.38707,-23.91461 186.675133,-18.5657 250.998059,-8.99658 14.265356,-5.1302 38.900293,-1.78364 55.998516,1.99766 v -1.99766 C 45.689324,390.2845 -14.439401,378.12479 -77.085765,377.49099 Z"
             transform="translate(649.5,342.4375)" />
        </g>
        <path
           d="M 0,0 C 4,1 4,1 4,1 Z"
           fill="#b26346"
           transform="translate(373,535)"
           id="path628" />
        <path
           d="M 0,0 C 4,1 4,1 4,1 Z"
           fill="#d76839"
           transform="translate(399,533)"
           id="path632" />
        <path
           d="M 0,0 C 4,1 4,1 4,1 Z"
           fill="#d46738"
           transform="translate(394,533)"
           id="path634" />
        <path
           d="M 0,0 C 4,1 4,1 4,1 Z"
           fill="#e46835"
           transform="translate(408,520)"
           id="path636" />
        <path
           d="M 0,0 C 3,1 3,1 3,1 Z"
           fill="#cd683f"
           transform="translate(384,534)"
           id="path700" />
        <path
           d="M 0,0 C 3,1 3,1 3,1 Z"
           fill="#ee6930"
           transform="translate(464,512)"
           id="path706" />
        <path
           d="M 0,0 C 2,1 2,1 2,1 Z"
           fill="#f26a2f"
           transform="translate(497,532)"
           id="path876" />
      </g>
    </g>
  </g>
  <text
     xml:space="preserve"
     style="font-style:normal;font-variant:normal;font-weight:bold;font-stretch:normal;font-size:55.6918px;line-height:0;font-family:'Arial Black';-inkscape-font-specification:'Arial Black,  Bold';fill:#3b59cb;fill-opacity:1;stroke:#3b59cb;stroke-width:1.392;stroke-dasharray:none;stroke-opacity:1"
     x="269.84384"
     y="166.02805"
     id="text5309"
     inkscape:export-filename="primetec text.png"
     inkscape:export-xdpi="96"
     inkscape:export-ydpi="96"><tspan
       sodipodi:role="line"
       id="tspan5307"
       x="269.84384"
       y="166.02805"
       style="line-height:1.25;fill:#3b59cb;fill-opacity:1;stroke:#3b59cb;stroke-width:1.392;stroke-dasharray:none;stroke-opacity:1"><tspan
         style="font-size:133.661px;line-height:1.25;fill:#3b59cb;fill-opacity:1;stroke:#3b59cb;stroke-width:1.392;stroke-dasharray:none;stroke-opacity:1"
         id="tspan6087">P</tspan><tspan
         style="font-size:103.958px;fill:#3b59cb;fill-opacity:1;stroke:#3b59cb;stroke-width:1.392;stroke-dasharray:none;stroke-opacity:1"
         id="tspan6093">RIMETEC</tspan><tspan
         style="font-size:133.661px;line-height:1.25;fill:#3b59cb;fill-opacity:1;stroke:#3b59cb;stroke-width:1.392;stroke-dasharray:none;stroke-opacity:1"
         id="tspan6091">H</tspan></tspan></text>
</svg>
